<svg xmlns="http://www.w3.org/2000/svg" width="19.999" height="19.999" viewBox="0 0 19.999 19.999">
  <path id="chat-oval-speech-bubbles-symbol" d="M10,0A10,10,0,0,0,1.326,14.977l-1.288,4a.781.781,0,0,0,.983.983l4-1.288A10,10,0,1,0,10,0Zm0,18.437a8.413,8.413,0,0,1-4.466-1.278.782.782,0,0,0-.654-.081l-2.888.93.93-2.888a.782.782,0,0,0-.081-.654A8.438,8.438,0,1,1,10,18.437ZM10.976,10A.977.977,0,1,1,10,9.023.977.977,0,0,1,10.976,10Zm3.906,0a.977.977,0,1,1-.977-.977A.977.977,0,0,1,14.882,10ZM7.07,10a.977.977,0,1,1-.977-.977A.977.977,0,0,1,7.07,10Zm0,0" fill="#44475b"/>
</svg>
