<svg xmlns="http://www.w3.org/2000/svg" width="17.165" height="20.499" viewBox="0 0 17.165 20.499">
  <g id="Group_35" data-name="Group 35" transform="translate(-1625.75 -25.75)">
    <g id="Group_5" data-name="Group 5" transform="translate(1632.666 26)">
      <path id="Path_34" data-name="Path 34" d="M12.916,3.483a.417.417,0,0,1-.417-.417v-1.4a.833.833,0,1,0-1.667,0v1.4a.417.417,0,0,1-.833,0v-1.4a1.667,1.667,0,0,1,3.333,0v1.4A.416.416,0,0,1,12.916,3.483Z" transform="translate(-10 0)" fill="#44475b" stroke="#44475b" stroke-width="0.5"/>
    </g>
    <g id="Group_6" data-name="Group 6" transform="translate(1631.416 42.665)">
      <path id="Path_35" data-name="Path 35" d="M11.416,23.333A2.92,2.92,0,0,1,8.5,20.417a.417.417,0,1,1,.833,0,2.083,2.083,0,0,0,4.166,0,.417.417,0,1,1,.833,0A2.92,2.92,0,0,1,11.416,23.333Z" transform="translate(-8.5 -20)" fill="#44475b" stroke="#44475b" stroke-width="0.5"/>
    </g>
    <g id="Group_7" data-name="Group 7" transform="translate(1626 28.5)">
      <path id="Path_36" data-name="Path 36" d="M17.416,18H3.25a1.25,1.25,0,0,1-.812-2.2A5.793,5.793,0,0,0,4.5,11.364V8.833a5.833,5.833,0,1,1,11.666,0v2.531a5.787,5.787,0,0,0,2.056,4.429A1.25,1.25,0,0,1,17.416,18ZM10.333,3.833a5,5,0,0,0-5,5v2.531A6.62,6.62,0,0,1,2.982,16.43a.416.416,0,0,0,.267.736H17.416a.417.417,0,0,0,.271-.733,6.625,6.625,0,0,1-2.354-5.068V8.833a5,5,0,0,0-5-5Z" transform="translate(-2 -3)" fill="#44475b" stroke="#44475b" stroke-width="0.5"/>
    </g>
  </g>
</svg>
