<svg xmlns="http://www.w3.org/2000/svg" width="663.394" height="571.672" viewBox="0 0 663.394 571.672">
  <g id="Group_2" data-name="Group 2" transform="translate(-2313 -106)">
    <path id="Path_1" data-name="Path 1" d="M415.4,225.34a23.553,23.553,0,0,1,13.54-5.81c3.79,2.68,8.08,4.82,11.02,8.54,6.53,7.57,7.66,18.58,4.98,27.95-4.77-8.65-17.61-10.07-24.94-3.97-6.54,5.34-9.89,13.48-12.39,21.32-6.14,20.29-5.55,41.99-2.17,62.72a217.185,217.185,0,0,0,29.98,77.27c-.2-1-.58-3-.78-4a37.8,37.8,0,0,0,7.7,7.3l.82.6c-6.76,3.73-13.89,6.86-20.3,11.25-22.21-36.34-35.2-78.83-34.46-121.57.49-19.63,3.77-39.36,11.16-57.61C403.27,240.48,407.98,231.65,415.4,225.34Z" transform="translate(2123.836 -105.483)" fill="#fff"/>
    <path id="Path_2" data-name="Path 2" d="M618.95,344.08c14.3-5.14,30.34-5.89,44.8-.96,12.34,4.25,23.99,12.15,30.71,23.55-.22,2.45.08,5.21-1.43,7.33-1.44,2.08-3.9,3-6.04,4.15a18.894,18.894,0,0,0-7.9-12.31c-7.58-5.23-17.06-6.65-26.08-6.65-17.19-.33-34.94,2.86-49.68,12.09-17.4,10.73-29.13,29.5-32.58,49.5q-.66,2.355-1.31,4.74a144.2,144.2,0,0,0-18.21-9.05,108.638,108.638,0,0,1,28.26-47.92A110.371,110.371,0,0,1,618.95,344.08Z" transform="translate(2123.836 -105.483)" fill="#fff"/>
    <path id="Path_3" data-name="Path 3" d="M460.93,419.56c36.71-10.96,78.27-5.2,110.08,16.35,16.51,11.14,30.67,26.44,38.43,44.95,3.58,8.88,6.02,18.58,5.12,28.2-2.47,3.75-4.33,7.88-7,11.5-8.1,11.33-19.58,19.84-31.93,26.06-16.04,8.01-33.64,12.49-51.37,14.67A213.607,213.607,0,0,1,463.98,560c-15.43-2.61-30.66-7.14-44.55-14.44-11.58-6.13-22.31-14.35-29.95-25.1-2.66-3.61-4.49-7.72-6.95-11.45-1.03-13.95,3.89-27.77,10.98-39.62,15-24.47,40.14-41.74,67.42-49.83m-33.69,65.72c-8.53,2.3-14.92,10.91-14.31,19.78.5,2.66,4.56,3.2,5.71.73.61-1.96.33-4.1,1.13-6.02a13.662,13.662,0,0,1,26.5,3.33c.2,1.17,0,2.63,1.05,3.48a3.135,3.135,0,0,0,5.13-1.52,19.8,19.8,0,0,0-25.21-19.78m131.93-.05c-8.63,2.24-15.08,10.91-14.49,19.84.56,2.75,4.79,3.17,5.82.54.43-2.48.4-5.11,1.68-7.35a13.736,13.736,0,0,1,16.77-6.85c5.66,1.88,9.33,7.66,9.3,13.55.29,3.2,5.49,3.18,5.96.03.97-12.83-12.77-23.66-25.04-19.76M486,507.03c-3.04,2.64-3.05,7.54-.76,10.67,2.27,3.3,6.18,4.91,9.97,5.72a17.138,17.138,0,0,1-7.02,10.85,16.526,16.526,0,0,1-18.61.13c-1.17-.59-2.15-1.96-3.59-1.64-2.48-.07-3.78,3.45-1.99,5.11a22.762,22.762,0,0,0,23.66,3.66,23.689,23.689,0,0,0,10.81-9.45,23.34,23.34,0,0,0,11.62,9.78,22.733,22.733,0,0,0,22.88-4.04c2.42-2.3-1.02-6.69-3.77-4.64-3.47,2.62-7.72,4.4-12.14,4-7.52-.36-14.05-6.43-15.36-13.77,3.81-.8,7.74-2.42,10.01-5.76,2.26-3.12,2.23-7.98-.78-10.6-3.54-3.02-8.47-3.33-12.9-3.36-4.16.11-8.74.52-12.03,3.34M434.34,519.6c-2.72.92-5.72,2.44-6.69,5.35-.76,2.86,1.64,5.24,3.96,6.43,4.96,2.51,10.87,2.72,16.21,1.43,2.87-.82,6.01-2.16,7.42-4.99,1.29-2.73-.87-5.55-3.22-6.78-5.33-2.96-11.92-3.12-17.68-1.44m114.02-.07c-3.05.97-6.79,2.85-7.06,6.45.1,3.5,3.65,5.46,6.58,6.46a23.772,23.772,0,0,0,17.54-1.12c2.28-1.19,4.64-3.6,3.83-6.41-.88-2.66-3.54-4.16-6.01-5.08A24.774,24.774,0,0,0,548.36,519.53Z" transform="translate(2123.836 -105.483)" fill="#fff"/>
    <path id="Path_4" data-name="Path 4" d="M458.42,593.39a142.03,142.03,0,0,0,25.59,6.58c18.34,3.08,37.15-.3,54.45-6.63.58,1.34,1.14,2.71,1.68,4.1-10.36,7.05-14.94,21.99-8.91,33.25a35.368,35.368,0,0,0,6.53,8.06,158.133,158.133,0,0,1-78.57-.02c3.68-3.58,7.17-7.7,8.39-12.81,2.82-10.53-1.87-22.32-10.78-28.47C457.32,596.09,457.86,594.72,458.42,593.39Z" transform="translate(2123.836 -105.483)" fill="#fff"/>
    <path id="Path_5" data-name="Path 5" d="M428.58,608.46c3.92-4.83,10.14-8.24,16.49-7.14,9.22,1.04,15.91,10.3,15.4,19.32-4.51,4.46-9.07,8.9-13.93,12.99-7.85,5.9-19.4,3.72-26.1-2.94A35.394,35.394,0,0,1,428.58,608.46Z" transform="translate(2123.836 -105.483)" fill="#fff"/>
    <path id="Path_6" data-name="Path 6" d="M544.99,603.82a16.837,16.837,0,0,1,19.38.85c7.47,5.93,11.61,15.49,12.15,24.89-6.22,7.23-17.6,10.04-25.93,4.85-5.08-3.59-9.07-8.48-13.96-12.31A19.065,19.065,0,0,1,544.99,603.82Z" transform="translate(2123.836 -105.483)" fill="#fff"/>
    <path id="Path_7" data-name="Path 7" d="M421.78,212.84c14.69-4.47,31.97,2.44,39.56,15.8,6.75,11.63,7.35,25.95,4.36,38.82-5.38,20.87-10.83,41.76-14.51,63,45.9-13.99,97.78-6.54,137.72,20.15,12.86-8.6,27.22-15.47,42.61-17.86a72.9,72.9,0,0,1,50.41,10.36c9.63,6.19,18.06,14.8,22.52,25.46,3.16,7.52,3.93,16.48.18,23.93-4.86,9.65-15.91,15.31-26.55,14.82-14.57-.57-27.8-7.82-42.19-9.55a164.187,164.187,0,0,1-51.5,229.67c.37,6.41-1.37,13.21-6.08,17.8-8.82,9.03-25.05,9.3-33.7-.13a166.588,166.588,0,0,1-92.36-.02c-8.88,9.87-26.06,9.08-34.57-.84-4.06-4.57-5.51-10.9-5.13-16.89a164,164,0,0,1-24.78-260.74c-7.7-29.42-9.86-60.54-4.15-90.52,2.89-15.01,7.33-29.96,15.24-43.14,5.33-8.78,12.86-16.96,22.92-20.12m-6.38,12.5c-7.42,6.31-12.13,15.14-15.84,23.99-7.39,18.25-10.67,37.98-11.16,57.61-.74,42.74,12.25,85.23,34.46,121.57,6.41-4.39,13.54-7.52,20.3-11.25l-.82-.6c-3.84-18.59-4.47-37.72-2.98-56.61,2.05-26.12,7.78-51.76,14.18-77.11,2.29-10.24,6.27-20.28,5.99-30.93-.12-8.38-2.38-17.11-8.04-23.5a27.663,27.663,0,0,0-22.55-8.98,23.553,23.553,0,0,0-13.54,5.81m34.31,114c-.42,3.02-.84,6.04-1.23,9.07-2.67,22.04-3.1,44.63,1.69,66.41a140.518,140.518,0,0,1,93.59-1.12,116.465,116.465,0,0,1,31.8-52.36c2.11-1.93,4.26-3.81,6.49-5.61-38.71-24.91-88.73-31.11-132.34-16.39m169.24,4.74a110.371,110.371,0,0,0-39.46,24.47,108.638,108.638,0,0,0-28.26,47.92,144.2,144.2,0,0,1,18.21,9.05c.54.32,1.62.95,2.17,1.27,9.54-13.36,21.12-26.12,36.36-32.96,11.25-5.15,24.18-5.45,36.1-2.65,11.09,2.27,21.58,7.2,32.94,8.14,8.09.73,16.98-3.1,20.61-10.64,3.35-7.18,1.03-15.7-3.16-22.01-6.72-11.4-18.37-19.3-30.71-23.55-14.46-4.93-30.5-4.18-44.8.96M350.55,437.9A156,156,0,0,0,414.2,618.88a61.591,61.591,0,0,1,3.11-7.74c3.55-6.7,8.73-12.92,15.83-15.98a25.387,25.387,0,0,1,16.39-1.06,84.408,84.408,0,0,1,5.39-11.22c-21.32-4.71-42.51-13.15-58.72-28.17-10.12-9.37-17.76-21.65-20.51-35.25-3.15-15.08-.48-30.97,5.92-44.86,7.63-16.62,20.16-30.63,34.72-41.53a244.24,244.24,0,0,1-23.23-49.1c-.97-2.91-1.94-5.81-2.82-8.74a156.831,156.831,0,0,0-39.73,62.67m266.39-38.94c-16.65,5.06-28.86,18.56-38.74,32.24,16.66,11.84,30.94,27.69,38.75,46.76,6.1,14.79,7.81,31.7,3.03,47.11-4.31,14.22-13.97,26.35-25.7,35.24-15.28,11.62-33.63,18.51-52.25,22.61a90.2,90.2,0,0,1,5.36,11.17,25.524,25.524,0,0,1,16.5,1.11c7.08,3.1,12.23,9.33,15.77,16.04a60.436,60.436,0,0,1,3.09,7.75c37.9-24.12,64.48-65.24,70.43-109.82a155.96,155.96,0,0,0-27.25-111.76,51.38,51.38,0,0,0-8.99,1.55m-156.01,20.6c-27.28,8.09-52.42,25.36-67.42,49.83-7.09,11.85-12.01,25.67-10.98,39.62.1,14.17,6.92,27.69,16.77,37.64,11.82,11.96,27.27,19.69,43.15,24.73,21.74,6.8,44.77,8.9,67.46,7.76,20.45-1.11,40.97-5.03,59.72-13.46,13.09-5.95,25.46-14.31,34.12-25.96,6.49-8.83,10.79-19.61,10.81-30.66.9-9.62-1.54-19.32-5.12-28.2-7.76-18.51-21.92-33.81-38.43-44.95-31.81-21.55-73.37-27.31-110.08-16.35m2.34,164.97a69.15,69.15,0,0,0-4.85,8.86c-.56,1.33-1.1,2.7-1.62,4.06,8.91,6.15,13.6,17.94,10.78,28.47-1.22,5.11-4.71,9.23-8.39,12.81a158.133,158.133,0,0,0,78.57.02,35.368,35.368,0,0,1-6.53-8.06c-6.03-11.26-1.45-26.2,8.91-33.25-.54-1.39-1.1-2.76-1.68-4.1a74.954,74.954,0,0,0-4.71-8.74,223.655,223.655,0,0,1-70.48-.07m-34.69,23.93a35.394,35.394,0,0,0-8.14,22.23c.11,8.81,9.39,14.75,17.61,13.34,5.92-.56,9.47-5.79,13.67-9.32,4.26-3.62,8.57-8.11,8.75-14.07.51-9.02-6.18-18.28-15.4-19.32-6.35-1.1-12.57,2.31-16.49,7.14m116.41-4.64a19.065,19.065,0,0,0-8.36,18.28c1.12,7.95,8.74,12.1,13.77,17.49,6.12,6.87,18.24,5.76,23.57-1.5,1.83-2.45,2.4-5.55,2.55-8.53-.54-9.4-4.68-18.96-12.15-24.89A16.837,16.837,0,0,0,544.99,603.82Z" transform="translate(2123.836 -105.483)" fill="#301e14"/>
    <path id="Path_8" data-name="Path 8" d="M427.24,485.28a19.8,19.8,0,0,1,25.21,19.78,3.135,3.135,0,0,1-5.13,1.52c-1.05-.85-.85-2.31-1.05-3.48a13.662,13.662,0,0,0-26.5-3.33c-.8,1.92-.52,4.06-1.13,6.02-1.15,2.47-5.21,1.93-5.71-.73C412.32,496.19,418.71,487.58,427.24,485.28Z" transform="translate(2123.836 -105.483)" fill="#301e14"/>
    <path id="Path_9" data-name="Path 9" d="M559.17,485.23c12.27-3.9,26.01,6.93,25.04,19.76-.47,3.15-5.67,3.17-5.96-.03.03-5.89-3.64-11.67-9.3-13.55a13.736,13.736,0,0,0-16.77,6.85c-1.28,2.24-1.25,4.87-1.68,7.35-1.03,2.63-5.26,2.21-5.82-.54C544.09,496.14,550.54,487.47,559.17,485.23Z" transform="translate(2123.836 -105.483)" fill="#301e14"/>
    <path id="Path_10" data-name="Path 10" d="M486,507.03c3.29-2.82,7.87-3.23,12.03-3.34,4.43.03,9.36.34,12.9,3.36,3.01,2.62,3.04,7.48.78,10.6-2.27,3.34-6.2,4.96-10.01,5.76,1.31,7.34,7.84,13.41,15.36,13.77,4.42.4,8.67-1.38,12.14-4,2.75-2.05,6.19,2.34,3.77,4.64a22.733,22.733,0,0,1-22.88,4.04,23.34,23.34,0,0,1-11.62-9.78,23.689,23.689,0,0,1-10.81,9.45A22.762,22.762,0,0,1,464,537.87c-1.79-1.66-.49-5.18,1.99-5.11,1.44-.32,2.42,1.05,3.59,1.64a16.526,16.526,0,0,0,18.61-.13,17.138,17.138,0,0,0,7.02-10.85c-3.79-.81-7.7-2.42-9.97-5.72C482.95,514.57,482.96,509.67,486,507.03Z" transform="translate(2123.836 -105.483)" fill="#301e14"/>
    <path id="Path_11" data-name="Path 11" d="M428.94,219.53a27.663,27.663,0,0,1,22.55,8.98c5.66,6.39,7.92,15.12,8.04,23.5.28,10.65-3.7,20.69-5.99,30.93-6.4,25.35-12.13,50.99-14.18,77.11-1.49,18.89-.86,38.02,2.98,56.61a37.8,37.8,0,0,1-7.7-7.3c-4.09-19.92-4.14-40.48-1.92-60.64,2.45-21.97,9.52-43.05,13.56-64.73,1.57-9.22,2.69-19.2-1.34-27.97,2.68-9.37,1.55-20.38-4.98-27.95C437.02,224.35,432.73,222.21,428.94,219.53Z" transform="translate(2123.836 -105.483)" fill="#d8c8bb"/>
    <path id="Path_12" data-name="Path 12" d="M694.46,366.67c4.19,6.31,6.51,14.83,3.16,22.01-3.63,7.54-12.52,11.37-20.61,10.64-11.36-.94-21.85-5.87-32.94-8.14-11.92-2.8-24.85-2.5-36.1,2.65-15.24,6.84-26.82,19.6-36.36,32.96-.55-.32-1.63-.95-2.17-1.27q.645-2.385,1.31-4.74c9.92-18.2,27.19-33.24,47.95-37.01,17.5-3.1,34.73,2.7,51.83,5.58,4.52.54,9.66,1.49,13.74-1.11,3.19-2.27,2.98-6.62,2.72-10.09,2.14-1.15,4.6-2.07,6.04-4.15C694.54,371.88,694.24,369.12,694.46,366.67Z" transform="translate(2123.836 -105.483)" fill="#d8c8bb"/>
    <path id="Path_13" data-name="Path 13" d="M382.53,509.01c2.46,3.73,4.29,7.84,6.95,11.45,7.64,10.75,18.37,18.97,29.95,25.1,13.89,7.3,29.12,11.83,44.55,14.44a213.607,213.607,0,0,0,60.28,1.29c17.73-2.18,35.33-6.66,51.37-14.67,12.35-6.22,23.83-14.73,31.93-26.06,2.67-3.62,4.53-7.75,7-11.5-.02,11.05-4.32,21.83-10.81,30.66-8.66,11.65-21.03,20.01-34.12,25.96-18.75,8.43-39.27,12.35-59.72,13.46-22.69,1.14-45.72-.96-67.46-7.76-15.88-5.04-31.33-12.77-43.15-24.73C389.45,536.7,382.63,523.18,382.53,509.01Z" transform="translate(2123.836 -105.483)" fill="#d8c8bb"/>
    <path id="Path_14" data-name="Path 14" d="M463.27,584.53a223.655,223.655,0,0,0,70.48.07,74.954,74.954,0,0,1,4.71,8.74c-17.3,6.33-36.11,9.71-54.45,6.63a142.03,142.03,0,0,1-25.59-6.58A69.15,69.15,0,0,1,463.27,584.53Z" transform="translate(2123.836 -105.483)" fill="#d8c8bb"/>
    <path id="Path_15" data-name="Path 15" d="M446.54,633.63c4.86-4.09,9.42-8.53,13.93-12.99-.18,5.96-4.49,10.45-8.75,14.07-4.2,3.53-7.75,8.76-13.67,9.32-8.22,1.41-17.5-4.53-17.61-13.34C427.14,637.35,438.69,639.53,446.54,633.63Z" transform="translate(2123.836 -105.483)" fill="#d8c8bb"/>
    <path id="Path_16" data-name="Path 16" d="M536.63,622.1c4.89,3.83,8.88,8.72,13.96,12.31,8.33,5.19,19.71,2.38,25.93-4.85-.15,2.98-.72,6.08-2.55,8.53-5.33,7.26-17.45,8.37-23.57,1.5C545.37,634.2,537.75,630.05,536.63,622.1Z" transform="translate(2123.836 -105.483)" fill="#d8c8bb"/>
    <path id="Path_17" data-name="Path 17" d="M420,252.05c7.33-6.1,20.17-4.68,24.94,3.97,4.03,8.77,2.91,18.75,1.34,27.97-4.04,21.68-11.11,42.76-13.56,64.73-2.22,20.16-2.17,40.72,1.92,60.64.2,1,.58,3,.78,4a217.185,217.185,0,0,1-29.98-77.27c-3.38-20.73-3.97-42.43,2.17-62.72C410.11,265.53,413.46,257.39,420,252.05Z" transform="translate(2123.836 -105.483)" fill="#ff3bd1"/>
    <path id="Path_18" data-name="Path 18" d="M603.33,371.28c14.74-9.23,32.49-12.42,49.68-12.09,9.02,0,18.5,1.42,26.08,6.65a18.894,18.894,0,0,1,7.9,12.31c.26,3.47.47,7.82-2.72,10.09-4.08,2.6-9.22,1.65-13.74,1.11-17.1-2.88-34.33-8.68-51.83-5.58-20.76,3.77-38.03,18.81-47.95,37.01C574.2,400.78,585.93,382.01,603.33,371.28Z" transform="translate(2123.836 -105.483)" fill="#ff3bd1"/>
    <path id="Path_19" data-name="Path 19" d="M434.34,519.6c5.76-1.68,12.35-1.52,17.68,1.44,2.35,1.23,4.51,4.05,3.22,6.78-1.41,2.83-4.55,4.17-7.42,4.99-5.34,1.29-11.25,1.08-16.21-1.43-2.32-1.19-4.72-3.57-3.96-6.43C428.62,522.04,431.62,520.52,434.34,519.6Z" transform="translate(2123.836 -105.483)" fill="#ff3bd1"/>
    <path id="Path_20" data-name="Path 20" d="M548.36,519.53a24.774,24.774,0,0,1,14.88.3c2.47.92,5.13,2.42,6.01,5.08.81,2.81-1.55,5.22-3.83,6.41a23.772,23.772,0,0,1-17.54,1.12c-2.93-1-6.48-2.96-6.58-6.46C541.57,522.38,545.31,520.5,548.36,519.53Z" transform="translate(2123.836 -105.483)" fill="#ff3bd1"/>
    <path id="Path_21" data-name="Path 21" d="M448.48,348.41c41.45-15.05,89.55-10.29,127.08,12.93a116.465,116.465,0,0,0-31.8,52.36,140.518,140.518,0,0,0-93.59,1.12C445.38,393.04,445.81,370.45,448.48,348.41Z" transform="translate(2123.836 -105.483)" fill="#d522d6"/>
    <path id="Path_22" data-name="Path 22" d="M351.34,473.93a147.489,147.489,0,0,1,41.76-89.96,244.24,244.24,0,0,0,23.23,49.1c-14.56,10.9-27.09,24.91-34.72,41.53-6.4,13.89-9.07,29.78-5.92,44.86,2.75,13.6,10.39,25.88,20.51,35.25,16.21,15.02,37.4,23.46,58.72,28.17a84.408,84.408,0,0,0-5.39,11.22,25.387,25.387,0,0,0-16.39,1.06c-7.1,3.06-12.28,9.28-15.83,15.98a147.873,147.873,0,0,1-65.97-137.21Z" transform="translate(2123.836 -105.483)" fill="#d522d6"/>
    <path id="Path_23" data-name="Path 23" d="M578.2,431.2c9.88-13.68,22.09-27.18,38.74-32.24a147.86,147.86,0,0,1-37.28,212.28c-3.54-6.71-8.69-12.94-15.77-16.04a25.524,25.524,0,0,0-16.5-1.11,90.2,90.2,0,0,0-5.36-11.17c18.62-4.1,36.97-10.99,52.25-22.61,11.73-8.89,21.39-21.02,25.7-35.24,4.78-15.41,3.07-32.32-3.03-47.11C609.14,458.89,594.86,443.04,578.2,431.2Z" transform="translate(2123.836 -105.483)" fill="#d522d6"/>
    <path id="Path_24" data-name="Path 24" d="M232.05,679.97c2.43-2.83,5.09-6.11,9.04-6.6,3.99-.38,8.71,1.04,10.77,4.72,1.34,2.22-1.09,3.94-2.22,5.58a371.674,371.674,0,0,0-28.85,44.06c-5.87,10.59-11.66,21.38-15.05,33.06-.62,2.63-1.59,5.81.19,8.21,1.26,1.6,3.53,1,5.05.14,4.42-2.41,7.88-6.19,11.25-9.86a152.778,152.778,0,0,0,18.65-25.29,83.158,83.158,0,0,1,13.07-17.01c3.77-3.88,9.95-4.22,14.85-2.67,2.02.56,4.01,2.89,2.38,4.89-8.33,11.53-17.01,23.02-22.82,36.09-1.02,2.8-2.67,5.87-1.66,8.91,1.03,2.06,3.73,1.83,5.55,1.1,4.77-1.84,8.64-5.34,12.28-8.81a120.3,120.3,0,0,0,15.22-18.76c9.79-16.97,19.98-33.73,30.99-49.94,2.5-3.47,4.8-7.15,7.85-10.17a13.211,13.211,0,0,1,15.21,1.69c1.23,1.24-.15,2.61-.89,3.65a535.481,535.481,0,0,0-29.9,45.12c6.44-6.25,13.03-12.38,20.06-17.97,5.54-4.21,12.97-7.11,19.88-4.83a8.936,8.936,0,0,1,5.92,9.84,28.226,28.226,0,0,1-9.27,16.51c-6.93,6.1-15.98,8.73-24.56,11.6-.88,6.74-1.54,14.02,1.3,20.4,1.78,3.47,6.44,2.37,9.31,1.04,8.79-4.35,15.59-11.79,21.69-19.3a62.7,62.7,0,0,1,29.22-30.84c7.33-3.44,16.23-5.4,23.88-1.85,3.88,1.67,5.58,6.22,5.02,10.21-.87,6.64-4.79,12.46-9.26,17.27-5.79,6.05-13.51,11.11-22.15,11.15-3.48.13-6.75-1.26-9.66-3.03-1.27,4.7-2.53,10.39.78,14.57,3.29,3.97,9.15,3.51,13.71,2.6,12.83-3.02,23.84-11.41,32.12-21.44,5.43-6.27,8.38-14.13,12.83-21.05a305.655,305.655,0,0,1,27.7-39.46c3.66-4.98,10.82-6.11,16.47-4.49a3.266,3.266,0,0,1,1.61,5.54c-7.74,9.79-15.3,19.73-22.27,30.09,6.05-2.74,13.6-4.02,19.58-.42,4.34,2.55,5.86,8.04,5.04,12.79-1.66,11.6-7.33,22.35-14.63,31.39-6.95,8.72-16.39,15.83-27.31,18.6-6.42,1.57-14.18,1.07-18.93-4.06-4.52-4.74-4.47-11.96-2.69-17.87-9.72,9.96-22.32,17.99-36.42,19.4-7.27.82-15.01-.96-20.61-5.81a18.639,18.639,0,0,1-5.86-12.32c-7.77,9.02-16.53,18.25-28.17,21.98-5.75,1.89-13.8,1.13-16.8-4.87-3.79-7.74-3.91-17.1-1.22-25.2,1.07-3.65,4.51-5.7,7.68-7.32,8.13-3.92,15.82-9.23,21.39-16.41,1.16-1.73,3.06-4.17,1.41-6.18-2.36-1.03-4.73.87-6.8,1.84-9.74,5.95-18.49,13.35-27.15,20.73-1.34,1.05-1.98,2.68-2.8,4.12-5,9.43-10.34,18.78-13.86,28.89-.98,2.14.18,5.52-2.55,6.59-4.57,2.01-12.21,1.08-13.6-4.54-.33-4.66,2.1-8.95,3.7-13.18-5.48,5.02-11.4,10.15-18.7,12.22-5.01,1.36-11.09.7-14.65-3.43-3.28-3.59-3.12-8.85-2.61-13.37-5.12,6.93-10.88,13.69-18.29,18.26-6.43,4.05-16.26,3.43-20.81-3.15-3.7-5.14-2.67-11.86-1.02-17.55,3.79-12.95,9.87-25.09,16.16-36.98,7.44-13.53,15.39-26.89,25.23-38.82M381.83,722.8a74.485,74.485,0,0,0-15.58,21.19c6.19,1.14,11.77-2.75,16.34-6.44,5.09-4.54,10.15-9.79,12.24-16.44.92-2.01-.47-4.85-2.89-4.5-3.99.74-7.16,3.58-10.11,6.19m69.53-4.25a28.316,28.316,0,0,0-11.04,6.71,211.407,211.407,0,0,0-17.03,30.01c-1.61,4-3.58,8.22-3.04,12.64.41,2.55,3.62,3.04,5.56,1.86,4.23-2.17,7.52-5.75,10.66-9.24a126.232,126.232,0,0,0,16.71-25.27c1.9-4.2,4.01-8.59,3.98-13.3C457.26,718.94,453.86,717.55,451.36,718.55Z" transform="translate(2123.836 -105.483)" fill="#d522d6"/>
    <path id="Path_25" data-name="Path 25" d="M274.27,688.45c5.37-2.42,12.97,1.24,12.82,7.56-.92,7.83-12.32,13.59-18.17,7.1C264.57,698.03,268.86,690.61,274.27,688.45Z" transform="translate(2123.836 -105.483)" fill="#d522d6"/>
    <path id="Path_26" data-name="Path 26" d="M728.29,688.34c5.36-2.21,12.7,1.48,12.55,7.69-.98,6.79-9.39,12.17-15.81,8.94a7.764,7.764,0,0,1-3.64-9.72A12.964,12.964,0,0,1,728.29,688.34Z" transform="translate(2123.836 -105.483)" fill="#d522d6"/>
    <path id="Path_27" data-name="Path 27" d="M818.05,710.16a26.577,26.577,0,0,1,14.01-5.46c2.18-.26,5.17.67,5.24,3.31.14,3.61-2.85,6.32-3.48,9.78-2.45,10.82-2.21,22.01-4.2,32.91a37.883,37.883,0,0,0,18.05-13.93c.98-2.1,5.19-3.23,4.87.21-4.92,10.69-14.59,18.74-25.24,23.41-2.54,7.31-6.56,14.53-13.45,18.53-7.85,4.62-18.66,6.25-26.53.83-5.62-3.61-7.86-10.84-6.56-17.21-10.05,7.78-22.77,13.28-35.7,11.83-9.31-1.01-18.45-8.09-18.78-18.03a70.468,70.468,0,0,1-11.48,11.42c-5.14,4-11.02,7.88-17.78,7.88-4.52.17-9.23-2.08-11.35-6.18-2.01-3.99-1.5-8.62-.82-12.86-6.6,7.85-14,15.36-23.11,20.26-5.44,2.91-12.67,4.36-17.97.37-5.9-3.93-5.86-12.13-3.92-18.21,4.12-12.79,12.46-23.73,21.64-33.33-5.43.97-10.07,4.17-14.35,7.48a129.84,129.84,0,0,0-16.19,15.79c-5.6,5.85-9.01,13.38-12.06,20.78-3.44,3.28-9.26,3.67-13.48,1.74-2.88-1.44-1.01-4.86-.2-7.01-6.47,6.33-13.69,12.69-22.71,14.85-5.74,1.5-12.58-1.16-15.1-6.68-2.23-5.25-1.05-11.2.85-16.36,4.51-11.6,12.17-21.68,20.73-30.59-5.28.93-9.8,4.01-13.98,7.2a134.733,134.733,0,0,0-18.23,17.99c-3.64,3.97-5.76,9.01-8.25,13.71-1.32,2.26-1.32,5.64-4.13,6.69-3.66,1.54-8.18,2.04-11.76.04-2.47-1.58-.8-4.68.1-6.67a373.542,373.542,0,0,1,29.51-49.41c2.13-3.85,6.92-4.36,10.87-4.13,2.47.21,5.4.59,6.9,2.85-5.1,6.48-9.55,13.42-14,20.36,7.14-6.33,14.19-12.86,22.22-18.07,5.01-3.29,10.59-6.53,16.8-6.22,3.93.23,8.42.66,11.34,3.63,1.29,1.18.69,3.18-.58,4.12-8.08,7.34-14.87,15.97-21.28,24.76-4.87,7.01-10.08,14.11-12.49,22.41-1.21,2.64.75,6.32,3.92,5.54,5.14-1.34,9.23-4.98,13.14-8.39a139.17,139.17,0,0,0,20.44-23.52c4.56-7.42,9.12-14.83,14.17-21.92,1.57-2.19,3.24-4.76,6.18-5.11,3.99-.74,8.72-.96,12.1,1.63,1.05,1.3-.79,2.41-1.37,3.44a158.582,158.582,0,0,0-11.86,17.61c8.66-7.96,17.53-15.94,27.96-21.51a22.852,22.852,0,0,1,18.89-1.22c1.67.66,3.4,1.71,4.05,3.5-.04,2.54-2.68,3.68-4.14,5.39a189.727,189.727,0,0,0-23.57,29.56c-3.11,5.01-6.41,10.16-7.61,16.02-.65,2.24,1.11,4.87,3.58,4.57,2.96-.4,5.55-2.11,7.97-3.77,6.1-4.45,11.28-10.02,16.35-15.59,4.37-5.05,8.69-10.23,11.81-16.16,3.9-6.55,8.29-12.93,13.83-18.2,3.08-3.17,7.85-3.68,12.03-3.18,2.15.31,4.66,1.08,5.65,3.25.11,2.29-1.87,3.87-3.01,5.65-7.67,10.53-15.38,21.22-20.6,33.21-.95,2.72-2.64,5.82-1.34,8.7,1.42,2.14,4.38,1.36,6.34.49,5.87-2.76,10.53-7.47,14.9-12.16,3.07-3.59,6.59-6.99,8.29-11.5a62.293,62.293,0,0,1,25.35-25.83c7.79-4.07,17.51-6.63,25.85-2.7,4.92,2.23,5.85,8.56,4.29,13.22-2.82,8.96-9.54,16.34-17.38,21.29-6.81,4.25-16.16,5.92-23.08,1.02-1.31,4.75-2.57,10.56.9,14.72,3.18,3.66,8.63,3.36,12.98,2.58,13.12-2.89,24.41-11.44,32.81-21.69,8.45-11.44,15.55-24.1,26.21-33.73m-50.32,8.56c-8.97,6.24-15.49,15.39-20.7,24.86,3.23,1.63,6.93-.15,9.9-1.6a47.289,47.289,0,0,0,16.7-16.32c1.17-2.35,3.03-5.26,1.67-7.89-2.07-2.49-5.44-.37-7.57.95m26.78,30.08a66.457,66.457,0,0,0,17.79,4.19c2.18-10.12,1.91-20.54,3.44-30.74-6.85,9.02-13.77,18.01-21.23,26.55m-6.87,11.33c-1.22,3.88-1.85,8.79,1.22,12.02,2.94,3,7.61,2.48,11.25,1.24,4.1-1.41,6.8-5.08,8.73-8.78A48.282,48.282,0,0,1,787.64,760.13Z" transform="translate(2123.836 -105.483)" fill="#d522d6"/>
    <path id="Path_28" data-name="Path 28" d="M533.49,709.42c2.81-3.82,8.22-2.61,11.89-.83,1.97,1.11,4.65,2.72,4.33,5.36-9.57,10.79-16.93,23.32-23.57,36.07a168.4,168.4,0,0,0-10.06,23.01c-.77,1.92.09,4.84-2.4,5.69a20.234,20.234,0,0,1-12.7,1.19c-1.89-.3-1.92-2.47-1.67-3.92.93-6.51,3.7-12.55,6.33-18.51-6.31,6.49-12.94,13.34-21.64,16.49-4.07,1.51-9.77,1.42-12.06-2.91-3.42-6.78-.38-14.49,2.12-21.05,5.55-12.91,12.84-25.25,22.44-35.57,3.62-4.4,10.08-5.11,15.16-3.1a4.687,4.687,0,0,1,2.83,2.63c.01,1.7-1.55,2.76-2.47,4.02a180.728,180.728,0,0,0-19.52,28.65c-1.94,4.04-5.16,8.58-3.43,13.22,2.73.57,5.12-1.16,7.24-2.61,8.97-6.43,15-15.88,21.2-24.79C522.72,724.7,527.65,716.73,533.49,709.42Z" transform="translate(2123.836 -105.483)" fill="#d522d6"/>
  </g>
</svg>
