<svg id="menu" xmlns="http://www.w3.org/2000/svg" width="19.279" height="19.279" viewBox="0 0 19.279 19.279">
  <g id="Group_28" data-name="Group 28">
    <g id="Group_27" data-name="Group 27">
      <path id="Path_40" data-name="Path 40" d="M6.657,0H2.229A2.232,2.232,0,0,0,0,2.229V6.657A2.232,2.232,0,0,0,2.229,8.887H6.657A2.232,2.232,0,0,0,8.887,6.657V2.229A2.232,2.232,0,0,0,6.657,0ZM7.38,6.657a.724.724,0,0,1-.723.723H2.229a.724.724,0,0,1-.723-.723V2.229a.724.724,0,0,1,.723-.723H6.657a.724.724,0,0,1,.723.723Z" fill="#44475b"/>
    </g>
  </g>
  <g id="Group_30" data-name="Group 30" transform="translate(10.393)">
    <g id="Group_29" data-name="Group 29">
      <path id="Path_41" data-name="Path 41" d="M282.627,0h-4.368A2.262,2.262,0,0,0,276,2.259V6.627a2.262,2.262,0,0,0,2.259,2.259h4.368a2.262,2.262,0,0,0,2.259-2.259V2.259A2.262,2.262,0,0,0,282.627,0Zm.753,6.627a.754.754,0,0,1-.753.753h-4.368a.754.754,0,0,1-.753-.753V2.259a.754.754,0,0,1,.753-.753h4.368a.754.754,0,0,1,.753.753Z" transform="translate(-276)" fill="#44475b"/>
    </g>
  </g>
  <g id="Group_32" data-name="Group 32" transform="translate(0 10.393)">
    <g id="Group_31" data-name="Group 31">
      <path id="Path_42" data-name="Path 42" d="M6.657,276H2.229A2.232,2.232,0,0,0,0,278.229v4.428a2.232,2.232,0,0,0,2.229,2.229H6.657a2.232,2.232,0,0,0,2.229-2.229v-4.428A2.232,2.232,0,0,0,6.657,276Zm.723,6.657a.724.724,0,0,1-.723.723H2.229a.724.724,0,0,1-.723-.723v-4.428a.724.724,0,0,1,.723-.723H6.657a.724.724,0,0,1,.723.723Z" transform="translate(0 -276)" fill="#44475b"/>
    </g>
  </g>
  <g id="Group_34" data-name="Group 34" transform="translate(10.393 10.393)">
    <g id="Group_33" data-name="Group 33">
      <path id="Path_43" data-name="Path 43" d="M282.627,276h-4.368A2.262,2.262,0,0,0,276,278.259v4.368a2.262,2.262,0,0,0,2.259,2.259h4.368a2.262,2.262,0,0,0,2.259-2.259v-4.368A2.262,2.262,0,0,0,282.627,276Zm.753,6.627a.754.754,0,0,1-.753.753h-4.368a.754.754,0,0,1-.753-.753v-4.368a.754.754,0,0,1,.753-.753h4.368a.754.754,0,0,1,.753.753Z" transform="translate(-276 -276)" fill="#44475b"/>
    </g>
  </g>
</svg>
