<svg data-v-423bf9ae="" xmlns="http://www.w3.org/2000/svg" viewBox="0 0 97.55514042677622 60" class="font"><!----><!----><!----><g data-v-423bf9ae="" id="671ae101-57eb-431c-8564-685ee40ed405" fill="white" transform="matrix(5.514705340961324,0,0,5.514705340961324,-0.7720604899977488,-34.41176006538278)"><path d="M8.91 15.39L8.91 15.39L8.91 15.39Q8.15 15.87 7.42 16.16L7.42 16.16L7.42 16.16Q6.70 16.45 5.97 16.61L5.97 16.61L5.97 16.61Q5.24 16.76 4.48 16.80L4.48 16.80L4.48 16.80Q3.72 16.83 2.90 16.80L2.90 16.80L2.90 16.80Q2.63 16.79 2.43 16.78L2.43 16.78L2.43 16.78Q2.22 16.76 2.09 16.68L2.09 16.68L2.09 16.68Q1.96 16.60 1.89 16.43L1.89 16.43L1.89 16.43Q1.82 16.25 1.82 15.91L1.82 15.91L1.82 15.91Q1.82 15.74 1.82 15.32L1.82 15.32L1.82 15.32Q1.83 14.90 1.83 14.31L1.83 14.31L1.83 14.31Q1.83 13.73 1.84 13.03L1.84 13.03L1.84 13.03Q1.85 12.34 1.85 11.63L1.85 11.63L1.85 11.63Q1.86 10.92 1.87 10.24L1.87 10.24L1.87 10.24Q1.87 9.56 1.88 9.00L1.88 9.00L1.88 9.00Q1.89 8.45 1.89 8.07L1.89 8.07L1.89 8.07Q1.90 7.69 1.91 7.58L1.91 7.58L1.91 7.58Q1.91 7.46 1.86 7.38L1.86 7.38L1.86 7.38Q1.80 7.29 1.70 7.24L1.70 7.24L1.70 7.24Q1.60 7.19 1.46 7.17L1.46 7.17L1.46 7.17Q1.33 7.15 1.18 7.15L1.18 7.15L1.18 7.15Q0.94 7.15 0.66 7.19L0.66 7.19L0.66 7.19Q0.38 7.24 0.14 7.30L0.14 7.30L0.14 7.30Q0.49 7.08 0.82 6.88L0.82 6.88L0.82 6.88Q1.16 6.69 1.50 6.55L1.50 6.55L1.50 6.55Q1.85 6.41 2.20 6.32L2.20 6.32L2.20 6.32Q2.56 6.24 2.94 6.24L2.94 6.24L2.94 6.24Q3.09 6.24 3.23 6.26L3.23 6.26L3.23 6.26Q3.36 6.28 3.47 6.31L3.47 6.31L3.47 6.31Q3.57 6.35 3.63 6.42L3.63 6.42L3.63 6.42Q3.69 6.48 3.68 6.58L3.68 6.58L3.68 6.58Q3.68 6.84 3.67 7.88L3.67 7.88L3.67 7.88Q3.66 8.32 3.66 8.98L3.66 8.98L3.66 8.98Q3.65 9.63 3.64 10.56L3.64 10.56L3.64 10.56Q3.63 11.49 3.62 12.73L3.62 12.73L3.62 12.73Q3.61 13.96 3.60 15.55L3.60 15.55L3.60 15.55Q4.24 15.63 4.81 15.66L4.81 15.66L4.81 15.66Q5.37 15.69 5.88 15.69L5.88 15.69L5.88 15.69Q6.59 15.69 7.15 15.64L7.15 15.64L7.15 15.64Q7.71 15.60 8.10 15.54L8.10 15.54L8.10 15.54Q8.56 15.48 8.91 15.39ZM17.83 12.87L17.83 12.87L17.83 12.87Q17.76 13.49 17.45 14.05L17.45 14.05L17.45 14.05Q17.14 14.60 16.67 15.07L16.67 15.07L16.67 15.07Q16.21 15.54 15.63 15.92L15.63 15.92L15.63 15.92Q15.05 16.30 14.43 16.57L14.43 16.57L14.43 16.57Q13.81 16.83 13.19 16.97L13.19 16.97L13.19 16.97Q12.56 17.12 12.02 17.12L12.02 17.12L12.02 17.12Q11.76 17.11 11.48 17.08L11.48 17.08L11.48 17.08Q11.25 17.06 10.95 17.00L10.95 17.00L10.95 17.00Q10.66 16.95 10.37 16.85L10.37 16.85L10.68 7.70L10.68 7.70Q10.39 7.70 10.06 7.68L10.06 7.68L10.06 7.68Q9.72 7.66 9.32 7.61L9.32 7.61L11.07 6.62L11.07 6.62Q11.31 6.66 11.54 6.67L11.54 6.67L11.54 6.67Q11.77 6.69 11.97 6.69L11.97 6.69L11.97 6.69Q12.33 6.69 12.66 6.64L12.66 6.64L12.66 6.64Q13.00 6.60 13.32 6.54L13.32 6.54L13.32 6.54Q13.64 6.48 13.95 6.44L13.95 6.44L13.95 6.44Q14.27 6.39 14.59 6.39L14.59 6.39L14.59 6.39Q15.11 6.39 15.56 6.54L15.56 6.54L15.56 6.54Q16.00 6.69 16.31 6.97L16.31 6.97L16.31 6.97Q16.63 7.25 16.80 7.66L16.80 7.66L16.80 7.66Q16.97 8.07 16.95 8.61L16.95 8.61L16.95 8.61Q16.92 8.95 16.71 9.32L16.71 9.32L16.71 9.32Q16.63 9.47 16.50 9.65L16.50 9.65L16.50 9.65Q16.37 9.83 16.17 10.01L16.17 10.01L16.17 10.01Q15.98 10.20 15.73 10.38L15.73 10.38L15.73 10.38Q15.48 10.57 15.15 10.75L15.15 10.75L15.15 10.75Q15.27 10.73 15.39 10.73L15.39 10.73L15.39 10.73Q15.50 10.72 15.61 10.72L15.61 10.72L15.61 10.72Q16.05 10.72 16.38 10.81L16.38 10.81L16.38 10.81Q16.71 10.90 16.96 11.06L16.96 11.06L16.96 11.06Q17.20 11.21 17.36 11.40L17.36 11.40L17.36 11.40Q17.51 11.59 17.61 11.80L17.61 11.80L17.61 11.80Q17.83 12.28 17.83 12.87ZM13.77 16.06L13.77 16.06L13.77 16.06Q14.33 16.06 14.77 15.91L14.77 15.91L14.77 15.91Q15.20 15.75 15.49 15.45L15.49 15.45L15.49 15.45Q15.78 15.16 15.93 14.73L15.93 14.73L15.93 14.73Q16.08 14.30 16.08 13.75L16.08 13.75L16.08 13.75Q16.08 13.29 15.93 12.90L15.93 12.90L15.93 12.90Q15.77 12.50 15.49 12.22L15.49 12.22L15.49 12.22Q15.20 11.94 14.82 11.77L14.82 11.77L14.82 11.77Q14.44 11.61 13.99 11.61L13.99 11.61L13.99 11.61Q13.82 11.61 13.64 11.65L13.64 11.65L13.64 11.65Q13.47 11.68 13.30 11.77L13.30 11.77L13.30 11.77Q13.88 11.46 14.25 11.14L14.25 11.14L14.25 11.14Q14.62 10.81 14.82 10.50L14.82 10.50L14.82 10.50Q15.03 10.18 15.11 9.88L15.11 9.88L15.11 9.88Q15.19 9.58 15.19 9.32L15.19 9.32L15.19 9.32Q15.19 8.93 15.05 8.59L15.05 8.59L15.05 8.59Q14.91 8.25 14.67 8.00L14.67 8.00L14.67 8.00Q14.43 7.75 14.10 7.61L14.10 7.61L14.10 7.61Q13.77 7.47 13.40 7.47L13.40 7.47L13.40 7.47Q13.14 7.47 12.91 7.50L12.91 7.50L12.91 7.50Q12.67 7.52 12.44 7.55L12.44 7.55L12.13 15.80L12.13 15.80Q12.63 15.95 13.03 16.01L13.03 16.01L13.03 16.01Q13.43 16.06 13.77 16.06Z"></path></g><!----><!----></svg>